
<svg
  version="1.0"
  xmlns="http://www.w3.org/2000/svg"
  xmlns:xlink="http://www.w3.org/1999/xlink"
  width="2400"
  height="1800"
>
  
  <rect
    x="0"
    y="0"
    width="100%"
    height="100%"
    fill="#000000"
    fill-opacity="1"
  ></rect>
  <svg
    version="1.0"
    xmlns="http://www.w3.org/2000/svg"
    xmlns:xlink="http://www.w3.org/1999/xlink"
    x="0"
    y="0"
    width="2400"
    height="1800"
    viewBox="0 0 340.000000 250.000000"
    preserveAspectRatio="xMidYMid meet"
    color-interpolation-filters="sRGB"
  >
    <defs><linearGradient id="92" x1="0%" y1="0%" x2="100%" y2="0%"><stop offset="0%" stop-color="#fa71cd"/> <stop offset="100%" stop-color="#9b59b6"/></linearGradient><linearGradient id="93" x1="0%" y1="0%" x2="100%" y2="0%"><stop offset="0%" stop-color="#f9d423"/> <stop offset="100%" stop-color="#f83600"/></linearGradient><linearGradient id="94" x1="0%" y1="0%" x2="100%" y2="0%"><stop offset="0%" stop-color="#0064d2"/> <stop offset="100%" stop-color="#1cb0f6"/></linearGradient><linearGradient id="95" x1="0%" y1="0%" x2="100%" y2="0%"><stop offset="0%" stop-color="#f00978"/> <stop offset="100%" stop-color="#3f51b1"/></linearGradient><linearGradient id="96" x1="0%" y1="0%" x2="100%" y2="0%"><stop offset="0%" stop-color="#7873f5"/> <stop offset="100%" stop-color="#ec77ab"/></linearGradient><linearGradient id="97" x1="0%" y1="0%" x2="100%" y2="0%"><stop offset="0%" stop-color="#f9d423"/> <stop offset="100%" stop-color="#e14fad"/></linearGradient><linearGradient id="98" x1="0%" y1="0%" x2="100%" y2="0%"><stop offset="0%" stop-color="#009efd"/> <stop offset="100%" stop-color="#2af598"/></linearGradient><linearGradient id="99" x1="0%" y1="0%" x2="100%" y2="0%"><stop offset="0%" stop-color="#ffcc00"/> <stop offset="100%" stop-color="#00b140"/></linearGradient><linearGradient id="100" x1="0%" y1="0%" x2="100%" y2="0%"><stop offset="0%" stop-color="#d51007"/> <stop offset="100%" stop-color="#ff8177"/></linearGradient><linearGradient id="102" x1="0%" y1="0%" x2="100%" y2="0%"><stop offset="0%" stop-color="#a2b6df"/> <stop offset="100%" stop-color="#0c3483"/></linearGradient><linearGradient id="103" x1="0%" y1="0%" x2="100%" y2="0%"><stop offset="0%" stop-color="#7ac5d8"/> <stop offset="100%" stop-color="#eea2a2"/></linearGradient><linearGradient id="104" x1="0%" y1="0%" x2="100%" y2="0%"><stop offset="0%" stop-color="#00ecbc"/> <stop offset="100%" stop-color="#007adf"/></linearGradient><linearGradient id="105" x1="0%" y1="0%" x2="100%" y2="0%"><stop offset="0%" stop-color="#b88746"/> <stop offset="100%" stop-color="#fdf5a6"/></linearGradient></defs> <g fill="#F43E9F" class="iconbordersvg" transform="translate(77.114990234375,63.5560302734375)"><g><polyline stroke="#FFFFFF" stroke-width="2" fill-opacity="0" points="13.335014343261719,108.80793905258179 0,108.80793905258179 0,22.524232864379883 77.43500995635986,22.524232864379883"/> <polyline stroke="#FFFFFF" stroke-width="2" fill-opacity="0" points="172.43500518798828,108.80793905258179 185.77001953125,108.80793905258179 185.77001953125,22.524232864379883 108.33500957489014,22.524232864379883"/></g> <g><g><rect stroke-width="2" class="i-icon-bg" x="0" y="0" width="185.77001953125" height="122.887939453125" fill-opacity="0"/> </g> <g transform="translate(10,10)"><g transform="translate(0,0)"><rect fill="#FFFFFF" width="67.43500232696533" height="1" fill-opacity="0" x="0" y="12.024232864379883"/> <g class="iconsvg-imagesvg" transform="translate(70.43500232696533,0)"><g> <svg filter="url(#colors1917170439)" x="0" y="0" width="24.90000000000001" height="25.048537829327923" filtersec="colorsf4534402172" class="image-svg-svg primary" style="overflow: visible;"><svg xmlns="http://www.w3.org/2000/svg" viewBox="1.518568992614746 0.0000762939453125 508.9618835449219 511.99658203125" x="0px" y="0px"><path d="M106.203,157.956c-14.326,18.623-99.793-10.444-104.434-4.642-4.642,5.802,56.858,73.104,51.057,78.906-5.802,5.802-35.972-2.321-38.293,5.801-2.32,8.123,69.623,46.415,83.547,46.415,0,0-29.009,23.208-24.368,31.33,4.067,7.118,83.198,13.567,102.713,15.053-7.229,3.343-16.639,9.191-25.934,15.116-16.762,10.968-33.518,21.932-33.518,21.932-6.426,4.226-12.93,8.303-19.499,12.236,0,0-4.359,2.583-10.898,6.457-6.539,3.868-15.322,8.835-24.165,13.677-8.875,4.73-17.765,9.513-24.473,13.206-6.654,3.837-11.098,6.997-10.409,9.723,.69,2.756,6.268,3.627,14.236,2.659,8.003-.858,18.133-3.885,27.981-7.564,19.626-7.56,37.401-18.431,37.401-18.431,6.894-4.069,13.673-8.296,20.336-12.665,0,0,4.468-2.832,10.902-7.431,6.475-4.545,14.87-10.911,22.94-17.657,7.109-5.925,13.886-12.206,18.961-17.745-1.043,31.693-3.046,109.753,2.502,110.677,6.962,1.16,23.207-41.773,23.207-41.773,0,0,32.491,89.349,38.292,89.349,5.802,0,10.443-36.552,19.146-45.255,9.846-9.846,80.646,58.019,87.608,54.537,6.963-3.481-38.292-75.424-30.169-81.226,8.123-5.802,60.339,26.688,68.462,22.047,8.122-4.642-24.368-42.934-24.368-42.934,0,0,138.084,2.32,145.047-8.123,6.962-10.443-66.141-59.179-66.141-59.179,0,0,23.208-12.764,23.208-18.566,0-5.802-92.25-51.057-92.25-51.057,8.122-15.085,115.457-63.821,113.137-73.104-2.321-9.284-55.122-19.639-68.752-26.979-11.314-6.092,55.988-111.106,43.224-120.389-12.764-9.283-132.283,46.415-133.444,29.009-1.16-17.405,3.481-46.415-4.641-46.414-8.123,0-87.029,110.235-97.472,109.075s-24.368-103.273-33.651-106.755c-9.283-3.481-11.603,29.01-16.245,24.368C172.344,57.003,123.609-3.336,114.326,.145c-9.284,3.481,3.481,142.726-8.123,157.811Zm54.646,19.747c-6.418-47.182-10.757-89.714-5.682-90.568,4.471-.752,13.392,36.484,22.313,80.383,5.698-17.907,15.461-45.815,20.541-44.33,7.009,2.049-11.343,64.286-11.343,64.286l-3.145,10.752c10.323,53.825,19.214,106.979,19.214,106.979l.431,2.565c4.171-4.28,8.817-9.108,13.916-14.094,5.108-4.988,10.522-10.275,15.964-15.588l-.27-5.352s-5.378-100.472,2.371-100.863c5.915-.298,10.341,67.158,11.805,92.682,20.887-20.315,39.03-37.961,39.03-37.961,3.412-3.381,6.828-6.758,10.243-10.136l.083-8.844s.704-107.747,8.463-107.675c6.071,.056,6.277,76.113,6.174,101.773,1.068-1.085,2.155-2.149,3.219-3.239,0,0,24.247-24.484,48.498-48.97,24.504-24.29,49.129-48.51,53.527-44.774,4.214,3.583-17.022,32.241-40.309,59.088-18.863,21.97-38.997,42.772-45.817,49.731,1.91-.196,4.008-.405,6.307-.625,10.081-.973,23.521-2.122,36.982-2.982,26.92-1.727,53.928-2.319,54.279,1.547,.331,3.635-26.905,7.914-54.189,11.457-13.642,1.769-27.295,3.357-37.518,4.547-10.207,1.183-17.011,1.972-17.011,1.972l-5.326,.65c-4.813,4.762-9.648,9.503-14.471,14.255,0,0-6.3,6.004-15.75,15.012-5.831,5.373-12.87,11.821-20.504,18.536,21.254-1.399,94.684-5.748,95.143,.873,.505,7.285-102.064,14.24-102.064,14.24l-11.825,.82c-5.583,4.628-11.235,9.089-16.696,13.182-4.053,3.057-7.927,5.93-11.636,8.535l28.137,6.941s37.692,9.213,81.079,20.716l15.5-4.649s72.169-21.968,74.399-14.536c1.653,5.51-43.822,20.328-63.206,26.371,51.907,14.205,102.773,29.632,101.399,35.205-1.361,5.517-60.254-6.256-116.623-18.864,2.343,5.584,5.006,12.091,7.548,18.657,6.816,17.608,12.744,35.608,9.197,37.178-3.339,1.477-12.773-15.42-21.372-32.687-4.3-8.634-8.39-17.359-11.406-23.927-.495-1.104-.96-2.142-1.419-3.167-45.449-10.379-84.949-20.164-84.949-20.164l-11.075-2.732c5.157,5.953,11.794,13.684,19.004,22.255,1.857,.609,3.965,1.301,6.324,2.075,6.087,2.061,14.178,4.886,22.194,7.942,16.033,6.111,31.768,13.145,30.577,16.838-1.121,3.476-18.331-.198-35.262-4.741-2.42-.65-4.816-1.315-7.176-1.981,21.69,26.711,41.986,54.006,37.67,57.785-4.315,3.777-32.062-23.715-57.528-50.774,1.612,19.033,4.211,58.184-1.631,58.76-7.267,.717-13.986-68.99-13.986-68.99l-.727-7.381c-15.957-17.416-28.129-31.292-28.129-31.292-1.985-2.33-4.019-4.617-6.07-6.887-.851-.942-1.712-1.874-2.571-2.809l-.905-.223-.155-.922c-.402-.434-.802-.868-1.204-1.301-5.43-5.834-10.958-11.58-16.386-17.415,0,0-12.089-12.742-27.286-29.511-1.581-.474-3.229-.968-5.006-1.501-1.581-.496-3.247-1.019-4.972-1.56-3.444-1.098-7.108-2.304-10.756-3.569-14.59-5.058-28.916-11.05-27.859-14.783,.986-3.483,16.371-.985,31.636,2.418-23.808-27.116-47.499-56.293-43.113-60.447,4.044-3.831,31.272,21.147,57.065,46.626-4.679-17.659-11.055-45.042-6.029-46.511,7.01-2.049,24.54,58.47,24.54,58.47l2.756,9.431c8.133,8.31,15.188,15.652,20.086,20.784-3.147-19.012-9.071-55.548-14.381-92.498-1.175-.953-2.43-1.97-3.807-3.086-4.595-3.799-10.665-8.934-16.568-14.284-5.903-5.35-11.639-10.914-15.564-15.572-1.962-2.329-3.472-4.431-4.322-6.172-.426-.874-.682-1.645-.759-2.346-.045-.223-.003-.3-.066-.602l-.006-.173c-.056,.015-.089-.793,.247-.933,.329-.208,.639-.065,.735,.014,.059,.173,.05,.325,.018,.469,.161-.084,.367-.198,.588-.34,.276-.353,.282-.136,.431-.228,.543-.007,1.283,.173,2.152,.481,1.743,.622,4.036,1.791,6.68,3.335,5.287,3.089,11.978,7.681,18.548,12.431,3.023,2.185,6.001,4.394,8.825,6.515Z"/></svg></svg> <defs><filter id="colors1917170439"><feColorMatrix type="matrix" values="0 0 0 0 0.96875  0 0 0 0 0.9375  0 0 0 0 0.05078125  0 0 0 1 0" class="icon-feColorMatrix "/></filter> <filter id="colorsf4534402172"><feColorMatrix type="matrix" values="0 0 0 0 0.99609375  0 0 0 0 0.99609375  0 0 0 0 0.99609375  0 0 0 1 0" class="icon-fecolormatrix"/></filter> <filter id="colorsb214483412"><feColorMatrix type="matrix" values="0 0 0 0 0  0 0 0 0 0  0 0 0 0 0  0 0 0 1 0" class="icon-fecolormatrix"/></filter></defs></g></g> <rect fill="#FFFFFF" width="67.43500232696533" height="1" fill-opacity="0" x="98.33500480651855" y="12.024232864379883"/></g> <g transform="translate(0.00000762939453125,28.048465728759766)"><g fill-rule="" class="tp-name" transform="translate(0,0)"><g transform="scale(1)"><g><path d="M14.94-31.14L21.23-31.14 21.23-9.28Q21.23-4.73 18.6-2.21 15.97 0.31 11.55 0.31L11.55 0.31Q7.09 0.31 4.35-2.28 1.61-4.86 1.61-9.5L1.61-9.5 7.85-9.5Q7.9-7.49 8.81-6.38 9.72-5.26 11.46-5.26L11.46-5.26Q13.16-5.26 14.05-6.33 14.94-7.41 14.94-9.28L14.94-9.28 14.94-31.14ZM42.96 0.31Q38.59 0.31 34.93-1.74 31.27-3.79 29.13-7.43 26.99-11.06 26.99-15.66L26.99-15.66Q26.99-20.21 29.13-23.84 31.27-27.48 34.93-29.53 38.59-31.58 42.96-31.58L42.96-31.58Q47.38-31.58 51.01-29.53 54.65-27.48 56.77-23.84 58.88-20.21 58.88-15.66L58.88-15.66Q58.88-11.06 56.77-7.43 54.65-3.79 50.99-1.74 47.33 0.31 42.96 0.31L42.96 0.31ZM42.96-5.26Q45.77-5.26 47.91-6.54 50.05-7.81 51.26-10.17 52.46-12.54 52.46-15.66L52.46-15.66Q52.46-18.78 51.26-21.12 50.05-23.46 47.91-24.71 45.77-25.96 42.96-25.96L42.96-25.96Q40.15-25.96 37.99-24.71 35.82-23.46 34.62-21.12 33.41-18.78 33.41-15.66L33.41-15.66Q33.41-12.54 34.62-10.17 35.82-7.81 37.99-6.54 40.15-5.26 42.96-5.26L42.96-5.26ZM74.28 0.31Q71.02 0.31 68.41-0.8 65.8-1.92 64.28-4.01 62.77-6.11 62.72-8.97L62.72-8.97 69.41-8.97Q69.55-7.05 70.77-5.93 72-4.82 74.14-4.82L74.14-4.82Q76.33-4.82 77.58-5.87 78.83-6.91 78.83-8.61L78.83-8.61Q78.83-9.99 77.98-10.88 77.13-11.78 75.86-12.29 74.59-12.8 72.36-13.43L72.36-13.43Q69.32-14.32 67.43-15.19 65.53-16.06 64.17-17.82 62.81-19.58 62.81-22.53L62.81-22.53Q62.81-25.29 64.19-27.35 65.58-29.4 68.07-30.49 70.57-31.58 73.78-31.58L73.78-31.58Q78.6-31.58 81.61-29.24 84.62-26.9 84.94-22.71L84.94-22.71 78.07-22.71Q77.98-24.31 76.71-25.36 75.43-26.41 73.34-26.41L73.34-26.41Q71.51-26.41 70.42-25.47 69.32-24.54 69.32-22.75L69.32-22.75Q69.32-21.5 70.15-20.68 70.97-19.85 72.2-19.34 73.43-18.83 75.66-18.16L75.66-18.16Q78.69-17.26 80.61-16.37 82.53-15.48 83.91-13.7 85.29-11.91 85.29-9.01L85.29-9.01Q85.29-6.51 84-4.37 82.71-2.23 80.21-0.96 77.71 0.31 74.28 0.31L74.28 0.31ZM108.76-26.1L96.94-26.1 96.94-18.29 107.42-18.29 107.42-13.34 96.94-13.34 96.94-5.09 108.76-5.09 108.76 0 90.69 0 90.69-31.18 108.76-31.18 108.76-26.1ZM137.13-21.5Q137.13-19 135.95-16.82 134.77-14.63 132.25-13.29 129.72-11.96 125.89-11.96L125.89-11.96 120.67-11.96 120.67 0 114.42 0 114.42-31.14 125.89-31.14Q129.5-31.14 132.04-29.89 134.59-28.64 135.86-26.45 137.13-24.27 137.13-21.5L137.13-21.5ZM125.62-17Q128.21-17 129.46-18.18 130.71-19.36 130.71-21.5L130.71-21.5Q130.71-26.05 125.62-26.05L125.62-26.05 120.67-26.05 120.67-17 125.62-17ZM161.13-31.14L167.38-31.14 167.38 0 161.13 0 161.13-13.25 147.79-13.25 147.79 0 141.55 0 141.55-31.14 147.79-31.14 147.79-18.33 161.13-18.33 161.13-31.14Z" transform="translate(-1.6100000143051147, 31.579999923706055)"/></g> <g fill="#47FFD1" transform="translate(0,34.88999938964844)"><g transform="scale(1.00169)"><path d="M17.07-21.07L7.53-21.07 7.53-14.77 15.99-14.77 15.99-10.77 7.53-10.77 7.53-4.11 17.07-4.11 17.07 0 2.48 0 2.48-25.17 17.07-25.17 17.07-21.07ZM43.36-25.14L49.05-25.14 49.05 0 44.01 0 44.01-16.35 37.27 0 33.46 0 26.69-16.35 26.69 0 21.64 0 21.64-25.14 27.37-25.14 35.37-6.45 43.36-25.14ZM68.61-21.07L59.06-21.07 59.06-14.77 67.53-14.77 67.53-10.77 59.06-10.77 59.06-4.11 68.61-4.11 68.61 0 54.02 0 54.02-25.17 68.61-25.17 68.61-21.07ZM91.98 0L86.15 0 80.6-9.8 78.22-9.8 78.22 0 73.18 0 73.18-25.14 82.62-25.14Q85.53-25.14 87.59-24.11 89.64-23.08 90.66-21.34 91.69-19.59 91.69-17.43L91.69-17.43Q91.69-14.95 90.25-12.95 88.81-10.95 85.97-10.19L85.97-10.19 91.98 0ZM78.22-20.96L78.22-13.58 82.44-13.58Q84.49-13.58 85.5-14.57 86.51-15.56 86.51-17.32L86.51-17.32Q86.51-19.05 85.5-20.01 84.49-20.96 82.44-20.96L82.44-20.96 78.22-20.96ZM104.94 0.25Q102.32 0.25 100.21-0.65 98.1-1.55 96.88-3.24 95.65-4.93 95.62-7.24L95.62-7.24 101.02-7.24Q101.13-5.69 102.12-4.79 103.11-3.89 104.84-3.89L104.84-3.89Q106.6-3.89 107.61-4.74 108.62-5.58 108.62-6.95L108.62-6.95Q108.62-8.07 107.93-8.79 107.25-9.51 106.22-9.92 105.2-10.34 103.4-10.84L103.4-10.84Q100.95-11.56 99.42-12.26 97.89-12.96 96.79-14.39 95.69-15.81 95.69-18.19L95.69-18.19Q95.69-20.42 96.81-22.08 97.92-23.73 99.94-24.62 101.96-25.5 104.55-25.5L104.55-25.5Q108.44-25.5 110.87-23.61 113.3-21.72 113.55-18.33L113.55-18.33 108.01-18.33Q107.93-19.63 106.91-20.47 105.88-21.32 104.19-21.32L104.19-21.32Q102.71-21.32 101.83-20.56 100.95-19.81 100.95-18.37L100.95-18.37Q100.95-17.36 101.61-16.69 102.28-16.03 103.27-15.61 104.26-15.2 106.06-14.66L106.06-14.66Q108.51-13.94 110.06-13.22 111.61-12.5 112.72-11.06 113.84-9.62 113.84-7.27L113.84-7.27Q113.84-5.26 112.8-3.53 111.75-1.8 109.73-0.77 107.72 0.25 104.94 0.25L104.94 0.25ZM129.87 0.25Q126.34 0.25 123.38-1.4 120.43-3.06 118.7-6 116.97-8.93 116.97-12.64L116.97-12.64Q116.97-16.31 118.7-19.25 120.43-22.18 123.38-23.84 126.34-25.5 129.87-25.5L129.87-25.5Q133.43-25.5 136.37-23.84 139.3-22.18 141.01-19.25 142.72-16.31 142.72-12.64L142.72-12.64Q142.72-8.93 141.01-6 139.3-3.06 136.35-1.4 133.4 0.25 129.87 0.25L129.87 0.25ZM129.87-4.25Q132.13-4.25 133.86-5.28 135.59-6.3 136.56-8.21 137.54-10.12 137.54-12.64L137.54-12.64Q137.54-15.16 136.56-17.05 135.59-18.94 133.86-19.95 132.13-20.96 129.87-20.96L129.87-20.96Q127.6-20.96 125.85-19.95 124.1-18.94 123.13-17.05 122.16-15.16 122.16-12.64L122.16-12.64Q122.16-10.12 123.13-8.21 124.1-6.3 125.85-5.28 127.6-4.25 129.87-4.25L129.87-4.25ZM167.97-25.17L167.97 0 162.93 0 151.51-17.25 151.51 0 146.47 0 146.47-25.17 151.51-25.17 162.93-7.89 162.93-25.17 167.97-25.17Z" transform="translate(-2.4800000190734863, 25.5)"/></g></g></g></g> <g transform="translate(6.3350067138671875,66.68351745605469)"><g fill-rule="" class="tp-slogan" fill="#FFFFFF" transform="translate(0,0)"> <g transform="scale(1, 1)"><g transform="scale(1)"><path d="M1.08 0L1.08-7.87L3.49-7.87Q4.14-7.87 4.68-7.75Q5.22-7.63 5.60-7.36Q5.98-7.09 6.19-6.65Q6.40-6.20 6.40-5.56L6.40-5.56Q6.40-4.93 6.19-4.48Q5.98-4.02 5.59-3.72Q5.21-3.42 4.67-3.27Q4.14-3.12 3.49-3.12L3.49-3.12L2.08-3.12L2.08 0L1.08 0ZM2.08-3.94L3.37-3.94Q4.40-3.94 4.90-4.33Q5.40-4.72 5.40-5.56L5.40-5.56Q5.40-6.41 4.90-6.74Q4.39-7.07 3.37-7.07L3.37-7.07L2.08-7.07L2.08-3.94ZM10.90 0.14L10.90 0.14Q10.15 0.14 9.53-0.14Q8.92-0.43 8.47-0.97Q8.03-1.50 7.78-2.26Q7.54-3.02 7.54-3.97L7.54-3.97Q7.54-4.92 7.78-5.67Q8.03-6.42 8.47-6.94Q8.92-7.46 9.53-7.74Q10.15-8.02 10.90-8.02L10.90-8.02Q11.64-8.02 12.26-7.73Q12.88-7.45 13.33-6.93Q13.78-6.41 14.02-5.66Q14.27-4.91 14.27-3.97L14.27-3.97Q14.27-3.02 14.02-2.26Q13.78-1.50 13.33-0.97Q12.88-0.43 12.26-0.14Q11.64 0.14 10.90 0.14ZM10.90-0.73L10.90-0.73Q11.42-0.73 11.85-0.96Q12.28-1.19 12.58-1.61Q12.89-2.04 13.06-2.63Q13.22-3.23 13.22-3.97L13.22-3.97Q13.22-4.70 13.06-5.29Q12.89-5.88 12.58-6.29Q12.28-6.70 11.85-6.92Q11.42-7.14 10.90-7.14L10.90-7.14Q10.37-7.14 9.94-6.92Q9.52-6.70 9.21-6.29Q8.90-5.88 8.74-5.29Q8.57-4.70 8.57-3.97L8.57-3.97Q8.57-3.23 8.74-2.63Q8.90-2.04 9.21-1.61Q9.52-1.19 9.94-0.96Q10.37-0.73 10.90-0.73ZM16.96-7.07L16.96-4.14L18.28-4.14Q19.20-4.14 19.69-4.52Q20.18-4.90 20.18-5.66L20.18-5.66Q20.18-6.44 19.69-6.76Q19.20-7.07 18.28-7.07L18.28-7.07L16.96-7.07ZM21.41 0L20.28 0L18.38-3.32L16.96-3.32L16.96 0L15.96 0L15.96-7.87L18.42-7.87Q19.02-7.87 19.53-7.76Q20.04-7.64 20.41-7.38Q20.77-7.12 20.98-6.70Q21.18-6.28 21.18-5.66L21.18-5.66Q21.18-4.74 20.70-4.19Q20.22-3.64 19.42-3.43L19.42-3.43L21.41 0ZM24.32 0L24.32-7.03L21.95-7.03L21.95-7.87L27.71-7.87L27.71-7.03L25.33-7.03L25.33 0L24.32 0ZM29.12 0L29.12-7.87L30.12-7.87L30.12-0.85L33.56-0.85L33.56 0L29.12 0ZM35.98-3.20L38.34-3.20L37.97-4.40Q37.75-5.06 37.56-5.72Q37.37-6.37 37.18-7.06L37.18-7.06L37.13-7.06Q36.95-6.37 36.76-5.72Q36.56-5.06 36.35-4.40L36.35-4.40L35.98-3.20ZM39.34 0L38.59-2.40L35.72-2.40L34.97 0L33.95 0L36.61-7.87L37.74-7.87L40.40 0L39.34 0ZM41.52 0L41.52-7.87L42.55-7.87L45.40-2.93L46.25-1.30L46.30-1.30Q46.26-1.90 46.22-2.54Q46.18-3.18 46.18-3.80L46.18-3.80L46.18-7.87L47.12-7.87L47.12 0L46.09 0L43.24-4.96L42.38-6.58L42.34-6.58Q42.38-5.98 42.43-5.36Q42.47-4.74 42.47-4.12L42.47-4.12L42.47 0L41.52 0ZM49.28 0L49.28-7.87L51.25-7.87Q53.08-7.87 54.02-6.86Q54.97-5.86 54.97-3.97L54.97-3.97Q54.97-3.04 54.73-2.30Q54.49-1.56 54.02-1.05Q53.56-0.54 52.87-0.27Q52.19 0 51.30 0L51.30 0L49.28 0ZM50.28-0.82L51.18-0.82Q52.56-0.82 53.25-1.64Q53.94-2.47 53.94-3.97L53.94-3.97Q53.94-5.47 53.25-6.26Q52.56-7.06 51.18-7.06L51.18-7.06L50.28-7.06L50.28-0.82ZM58.63-3.94L58.63-3.94Q58.63-4.88 58.90-5.64Q59.16-6.40 59.63-6.92Q60.10-7.45 60.74-7.73Q61.38-8.02 62.14-8.02L62.14-8.02Q62.86-8.02 63.40-7.72Q63.94-7.43 64.28-7.04L64.28-7.04L63.72-6.41Q63.41-6.74 63.03-6.94Q62.65-7.14 62.15-7.14L62.15-7.14Q61.58-7.14 61.13-6.92Q60.67-6.70 60.35-6.28Q60.02-5.87 59.84-5.28Q59.66-4.69 59.66-3.96L59.66-3.96Q59.66-3.22 59.84-2.62Q60.01-2.03 60.32-1.61Q60.64-1.19 61.09-0.96Q61.54-0.73 62.10-0.73L62.10-0.73Q62.68-0.73 63.10-0.96Q63.53-1.19 63.91-1.61L63.91-1.61L64.48-1.00Q64.01-0.46 63.42-0.16Q62.83 0.14 62.08 0.14L62.08 0.14Q61.33 0.14 60.70-0.13Q60.07-0.41 59.61-0.93Q59.15-1.45 58.89-2.21Q58.63-2.98 58.63-3.94ZM65.94 0L65.94-7.87L66.94-7.87L66.94 0L65.94 0ZM70.73 0L70.73-7.03L68.35-7.03L68.35-7.87L74.11-7.87L74.11-7.03L71.74-7.03L71.74 0L70.73 0ZM76.63 0L76.63-3.05L74.27-7.87L75.34-7.87L76.36-5.65Q76.55-5.22 76.73-4.80Q76.91-4.38 77.11-3.94L77.11-3.94L77.16-3.94Q77.36-4.38 77.57-4.80Q77.77-5.22 77.95-5.65L77.95-5.65L78.96-7.87L80.00-7.87L77.64-3.05L77.64 0L76.63 0ZM83.04-3.94L83.04-3.94Q83.04-4.88 83.30-5.64Q83.57-6.40 84.04-6.92Q84.50-7.45 85.15-7.73Q85.79-8.02 86.54-8.02L86.54-8.02Q87.26-8.02 87.80-7.72Q88.34-7.43 88.69-7.04L88.69-7.04L88.13-6.41Q87.82-6.74 87.44-6.94Q87.06-7.14 86.56-7.14L86.56-7.14Q85.99-7.14 85.54-6.92Q85.08-6.70 84.76-6.28Q84.43-5.87 84.25-5.28Q84.07-4.69 84.07-3.96L84.07-3.96Q84.07-3.22 84.25-2.62Q84.42-2.03 84.73-1.61Q85.04-1.19 85.49-0.96Q85.94-0.73 86.51-0.73L86.51-0.73Q87.08-0.73 87.51-0.96Q87.94-1.19 88.32-1.61L88.32-1.61L88.88-1.00Q88.42-0.46 87.83-0.16Q87.24 0.14 86.48 0.14L86.48 0.14Q85.74 0.14 85.11-0.13Q84.48-0.41 84.02-0.93Q83.56-1.45 83.30-2.21Q83.04-2.98 83.04-3.94ZM92.90 0.14L92.90 0.14Q92.16 0.14 91.54-0.14Q90.92-0.43 90.48-0.97Q90.04-1.50 89.79-2.26Q89.54-3.02 89.54-3.97L89.54-3.97Q89.54-4.92 89.79-5.67Q90.04-6.42 90.48-6.94Q90.92-7.46 91.54-7.74Q92.16-8.02 92.90-8.02L92.90-8.02Q93.65-8.02 94.27-7.73Q94.88-7.45 95.33-6.93Q95.78-6.41 96.03-5.66Q96.28-4.91 96.28-3.97L96.28-3.97Q96.28-3.02 96.03-2.26Q95.78-1.50 95.33-0.97Q94.88-0.43 94.27-0.14Q93.65 0.14 92.90 0.14ZM92.90-0.73L92.90-0.73Q93.43-0.73 93.86-0.96Q94.28-1.19 94.59-1.61Q94.90-2.04 95.06-2.63Q95.23-3.23 95.23-3.97L95.23-3.97Q95.23-4.70 95.06-5.29Q94.90-5.88 94.59-6.29Q94.28-6.70 93.86-6.92Q93.43-7.14 92.90-7.14L92.90-7.14Q92.38-7.14 91.95-6.92Q91.52-6.70 91.22-6.29Q90.91-5.88 90.74-5.29Q90.58-4.70 90.58-3.97L90.58-3.97Q90.58-3.23 90.74-2.63Q90.91-2.04 91.22-1.61Q91.52-1.19 91.95-0.96Q92.38-0.73 92.90-0.73ZM97.93-3.25L97.93-7.87L98.93-7.87L98.93-3.23Q98.93-2.52 99.07-2.04Q99.22-1.56 99.46-1.27Q99.71-0.98 100.04-0.86Q100.38-0.73 100.76-0.73L100.76-0.73Q101.16-0.73 101.50-0.86Q101.83-0.98 102.08-1.27Q102.34-1.56 102.48-2.04Q102.62-2.52 102.62-3.23L102.62-3.23L102.62-7.87L103.58-7.87L103.58-3.25Q103.58-2.30 103.37-1.66Q103.15-1.01 102.77-0.61Q102.40-0.20 101.88-0.03Q101.36 0.14 100.76 0.14L100.76 0.14Q100.16 0.14 99.64-0.03Q99.12-0.20 98.74-0.61Q98.36-1.01 98.15-1.66Q97.93-2.30 97.93-3.25L97.93-3.25ZM105.71 0L105.71-7.87L106.74-7.87L109.58-2.93L110.44-1.30L110.48-1.30Q110.45-1.90 110.41-2.54Q110.36-3.18 110.36-3.80L110.36-3.80L110.36-7.87L111.31-7.87L111.31 0L110.28 0L107.42-4.96L106.57-6.58L106.52-6.58Q106.57-5.98 106.61-5.36Q106.66-4.74 106.66-4.12L106.66-4.12L106.66 0L105.71 0ZM113.02-3.94L113.02-3.94Q113.02-4.88 113.28-5.64Q113.54-6.40 114.01-6.92Q114.48-7.45 115.12-7.73Q115.76-8.02 116.52-8.02L116.52-8.02Q117.24-8.02 117.78-7.72Q118.32-7.43 118.67-7.04L118.67-7.04L118.10-6.41Q117.79-6.74 117.41-6.94Q117.04-7.14 116.53-7.14L116.53-7.14Q115.97-7.14 115.51-6.92Q115.06-6.70 114.73-6.28Q114.41-5.87 114.23-5.28Q114.05-4.69 114.05-3.96L114.05-3.96Q114.05-3.22 114.22-2.62Q114.40-2.03 114.71-1.61Q115.02-1.19 115.47-0.96Q115.92-0.73 116.48-0.73L116.48-0.73Q117.06-0.73 117.49-0.96Q117.91-1.19 118.30-1.61L118.30-1.61L118.86-1.00Q118.39-0.46 117.80-0.16Q117.22 0.14 116.46 0.14L116.46 0.14Q115.72 0.14 115.09-0.13Q114.46-0.41 113.99-0.93Q113.53-1.45 113.27-2.21Q113.02-2.98 113.02-3.94ZM120.32 0L120.32-7.87L121.32-7.87L121.32 0L120.32 0ZM123.48 0L123.48-7.87L124.48-7.87L124.48-0.85L127.92-0.85L127.92 0L123.48 0ZM131.14 0L131.14-0.59Q132.00-1.45 132.67-2.15Q133.34-2.84 133.80-3.44Q134.26-4.03 134.50-4.53Q134.74-5.03 134.74-5.50L134.74-5.50Q134.74-6.16 134.38-6.58Q134.02-7.00 133.28-7.00L133.28-7.00Q132.80-7.00 132.40-6.73Q131.99-6.46 131.65-6.07L131.65-6.07L131.09-6.64Q131.57-7.16 132.11-7.48Q132.65-7.80 133.40-7.80L133.40-7.80Q134.47-7.80 135.08-7.18Q135.70-6.56 135.70-5.54L135.70-5.54Q135.70-5.00 135.46-4.46Q135.23-3.91 134.81-3.33Q134.40-2.75 133.83-2.12Q133.26-1.49 132.58-0.78L132.58-0.78Q132.89-0.80 133.22-0.83Q133.56-0.85 133.86-0.85L133.86-0.85L136.08-0.85L136.08 0L131.14 0ZM139.61 0.14L139.61 0.14Q138.44 0.14 137.80-0.89Q137.15-1.92 137.15-3.85L137.15-3.85Q137.15-5.78 137.80-6.79Q138.44-7.80 139.61-7.80L139.61-7.80Q140.76-7.80 141.41-6.79Q142.06-5.78 142.06-3.85L142.06-3.85Q142.06-1.92 141.41-0.89Q140.76 0.14 139.61 0.14ZM139.61-0.65L139.61-0.65Q139.94-0.65 140.21-0.83Q140.48-1.02 140.68-1.41Q140.88-1.80 140.99-2.41Q141.10-3.01 141.10-3.85L141.10-3.85Q141.10-4.69 140.99-5.29Q140.88-5.89 140.68-6.27Q140.48-6.65 140.21-6.83Q139.94-7.01 139.61-7.01L139.61-7.01Q139.27-7.01 139.00-6.83Q138.72-6.65 138.52-6.27Q138.32-5.89 138.22-5.29Q138.11-4.69 138.11-3.85L138.11-3.85Q138.11-2.17 138.52-1.41Q138.94-0.65 139.61-0.65ZM143.06 0L143.06-0.59Q143.93-1.45 144.60-2.15Q145.27-2.84 145.73-3.44Q146.18-4.03 146.42-4.53Q146.66-5.03 146.66-5.50L146.66-5.50Q146.66-6.16 146.30-6.58Q145.94-7.00 145.21-7.00L145.21-7.00Q144.73-7.00 144.32-6.73Q143.92-6.46 143.58-6.07L143.58-6.07L143.02-6.64Q143.50-7.16 144.04-7.48Q144.58-7.80 145.33-7.80L145.33-7.80Q146.40-7.80 147.01-7.18Q147.62-6.56 147.62-5.54L147.62-5.54Q147.62-5.00 147.39-4.46Q147.16-3.91 146.74-3.33Q146.33-2.75 145.76-2.12Q145.19-1.49 144.50-0.78L144.50-0.78Q144.82-0.80 145.15-0.83Q145.49-0.85 145.79-0.85L145.79-0.85L148.01-0.85L148.01 0L143.06 0ZM149.80-2.90L152.20-2.90L152.20-5.12Q152.20-5.44 152.21-5.86Q152.23-6.29 152.26-6.60L152.26-6.60L152.21-6.60Q152.06-6.32 151.91-6.06Q151.75-5.80 151.58-5.52L151.58-5.52L149.80-2.90ZM154.18-2.90L154.18-2.11L153.13-2.11L153.13 0L152.20 0L152.20-2.11L148.75-2.11L148.75-2.76L152.03-7.66L153.13-7.66L153.13-2.90L154.18-2.90Z" transform="translate(-1.08, 8.016)"/></g></g></g></g></g></g></g></g><defs v-gra="od"/>
  </svg>
</svg>


